<?xml version="1.0" encoding="UTF-8"?>
<svg id="Capa_1" xmlns="http://www.w3.org/2000/svg" viewBox="0 0 24 24">
  <defs>
    <style>
      .cls-1 {
        fill: none;
        stroke: #000;
        stroke-linecap: round;
        stroke-miterlimit: 10;
        stroke-width: 1.5px;
      }
    </style>
  </defs>
  <path class="cls-1" d="M16.66,8.66c-1.3-.07-2.29-1.19-2.22-2.49.09-1.62,1.48-2.87,3.11-2.78,2.03.11,3.59,1.85,3.47,3.88-.14,2.54-2.32,4.48-4.86,4.34H2.97"/>
  <path class="cls-1" d="M13.84,18.26c-.25.28-.4.66-.38,1.06.06,1.01.92,1.78,1.93,1.72,1.26-.07,2.23-1.15,2.16-2.41-.09-1.58-1.44-2.78-3.02-2.69h-5.76"/>
  <path class="cls-1" d="M6.88,4.25c.12-.76.8-1.32,1.58-1.28,1.05.06,1.84.95,1.79,2-.07,1.31-1.19,2.31-2.5,2.23H2.97"/>
  <line class="cls-1" x1="5.85" y1="15.93" x2="2.97" y2="15.93"/>
</svg>