<?xml version="1.0" encoding="UTF-8"?>
<svg id="Capa_2" xmlns="http://www.w3.org/2000/svg" viewBox="0 0 24 24">
  <defs>
    <style>
      .cls-1 {
        fill: none;
        stroke: #000;
        stroke-linecap: round;
        stroke-linejoin: round;
        stroke-width: 1.5px;
      }
    </style>
  </defs>
  <path class="cls-1" d="M17.37,6.73l-.47-1.29c-.2-.56-.74-.93-1.33-.93h-7.15c-.59,0-1.12.37-1.33.93l-.47,1.29c-.12.33-.43.55-.78.55h-1.56c-.74,0-1.34.6-1.34,1.34v9.54c0,.74.6,1.34,1.34,1.34h15.43c.74,0,1.34-.6,1.34-1.34v-9.54c0-.74-.6-1.34-1.34-1.34h-1.56c-.35,0-.66-.22-.78-.55Z"/>
  <circle class="cls-1" cx="12" cy="12.39" r="4.16"/>
</svg>