<?xml version="1.0" encoding="UTF-8"?>
<svg id="Capa_1" xmlns="http://www.w3.org/2000/svg" viewBox="0 0 24 24">
  <defs>
    <style>
      .cls-1 {
        stroke-miterlimit: 10;
      }

      .cls-1, .cls-2 {
        fill: none;
        stroke: #000;
        stroke-linecap: round;
        stroke-width: 1.5px;
      }

      .cls-2 {
        stroke-linejoin: round;
      }
    </style>
  </defs>
  <path class="cls-1" d="M4.24,17.65h7.63c.69,0,1.3-.44,1.52-1.1.43-1.3,1.44-3.28,3.6-3.28h.74c.64,0,1.16-.52,1.16-1.16v-5.06c0-.64-.52-1.16-1.16-1.16H4.24c-.74,0-1.34.6-1.34,1.34v9.06c0,.74.6,1.34,1.34,1.34Z"/>
  <path class="cls-1" d="M3.34,9.63h4.62c.41,0,.75.34.75.75v2.88c0,.41-.34.75-.75.75H3.34"/>
  <path class="cls-2" d="M19.14,7.27h1.63c.28,0,.51.23.51.51v3.01c0,.28-.23.51-.51.51h-1.63"/>
</svg>