<?xml version="1.0" encoding="UTF-8"?>
<svg id="Capa_2" xmlns="http://www.w3.org/2000/svg" viewBox="0 0 24 24">
  <defs>
    <style>
      .cls-1 {
        fill: none;
        stroke: #000;
        stroke-linecap: round;
        stroke-linejoin: round;
        stroke-width: 1.5px;
      }
    </style>
  </defs>
  <path class="cls-1" d="M2.89,18.58h.61c.62,0,1.11-.51,1.09-1.12-.04-1.34-.18-3.48-.59-4.27,0,0,3.22,2.83,3.72,4.28,0,0-.22-8.94-1.72-12.05,0,0,5.78,3.17,7.36,12.44"/>
  <path class="cls-1" d="M21.11,18.58h-.61c-.62,0-1.11-.51-1.09-1.12.04-1.34.18-3.48.59-4.27,0,0-3.22,2.83-3.72,4.28,0,0,.22-8.94,1.72-12.05,0,0-2.49,1.36-4.65,4.93"/>
</svg>