<?xml version="1.0" encoding="UTF-8"?>
<svg id="Capa_2" xmlns="http://www.w3.org/2000/svg" viewBox="0 0 24 24">
  <defs>
    <style>
      .cls-1 {
        fill: none;
        stroke: #000;
        stroke-linecap: round;
        stroke-linejoin: round;
        stroke-width: 1.5px;
      }
    </style>
  </defs>
  <circle class="cls-1" cx="12" cy="12" r="3.16"/>
  <path class="cls-1" d="M21.12,12.03v-.07c0-.7-.56-1.26-1.26-1.26h-.16c-.53,0-1.02-.33-1.18-.84-.11-.33-.24-.65-.4-.96-.24-.48-.14-1.05.24-1.43l.11-.11c.49-.49.49-1.29,0-1.78l-.05-.05c-.49-.49-1.29-.49-1.78,0l-.11.11c-.38.38-.95.48-1.43.24-.31-.15-.63-.29-.96-.4-.51-.17-.84-.65-.84-1.18v-.16c0-.7-.56-1.26-1.26-1.26h-.07c-.7,0-1.26.56-1.26,1.26v.16c0,.53-.33,1.02-.84,1.18-.33.11-.65.24-.96.4-.48.24-1.05.14-1.43-.24l-.11-.11c-.49-.49-1.29-.49-1.78,0l-.05.05c-.49.49-.49,1.29,0,1.78l.11.11c.38.38.48.95.24,1.43-.15.31-.29.63-.4.96-.17.51-.65.84-1.18.84h-.16c-.7,0-1.26.56-1.26,1.26v.07c0,.7.56,1.26,1.26,1.26h.16c.53,0,1.02.33,1.18.84.11.33.24.65.4.96.24.48.14,1.05-.24,1.43l-.11.11c-.49.49-.49,1.29,0,1.78l.05.05c.49.49,1.29.49,1.78,0l.11-.11c.38-.38.95-.48,1.43-.24.31.15.63.29.96.4.51.17.84.65.84,1.18v.16c0,.7.56,1.26,1.26,1.26h.07c.7,0,1.26-.56,1.26-1.26v-.16c0-.53.33-1.02.84-1.18.33-.11.65-.24.96-.4.48-.24,1.05-.14,1.43.24l.11.11c.49.49,1.29.49,1.78,0l.05-.05c.49-.49.49-1.29,0-1.78l-.11-.11c-.38-.38-.48-.95-.24-1.43.15-.31.29-.63.4-.96.17-.51.65-.84,1.18-.84h.16c.7,0,1.26-.56,1.26-1.26Z"/>
</svg>