<?xml version='1.0' encoding='UTF-8'?>
<svg xmlns="http://www.w3.org/2000/svg" id="Capa_2" viewBox="0 0 24 24">
  <path d="M18.41,18.41c-.82.82-2.29.67-3.3,1.09s-1.99,1.56-3.11,1.56-2.06-1.13-3.11-1.56-2.48-.27-3.3-1.09-.67-2.29-1.09-3.3-1.56-1.99-1.56-3.11,1.13-2.06,1.56-3.11.27-2.48,1.09-3.3,2.29-.67,3.3-1.09,1.99-1.56,3.11-1.56,2.06,1.13,3.11,1.56,2.48.27,3.3,1.09.67,2.29,1.09,3.3,1.56,1.99,1.56,3.11-1.13,2.06-1.56,3.11-.27,2.48-1.09,3.3Z" stroke-miterlimit="10" fill="none" stroke="#000" stroke-width="1.5"></path>
  <polyline points="9.2 12.35 11.15 14.3 15.75 9.7" stroke-linejoin="round" fill="none" stroke="#000" stroke-width="1.5"></polyline>
</svg>